<svg width="30" height="30" viewBox="0 0 30 30" fill="none" xmlns="http://www.w3.org/2000/svg">
<g filter="url(#filter0_i_111_1347)">
<path d="M22.125 23.875C22.75 23.875 23.1875 23.3125 23.125 22.625C22.5625 18.3125 19.125 15 15 15C10.875 15 7.43749 18.3125 6.87499 22.625C6.81249 23.25 7.24999 23.875 7.87499 23.875H22.125Z" fill="#A64141"/>
<path d="M22.125 24.0625H7.875C7.5625 24.0625 7.25 23.9375 7 23.6875C6.75 23.4375 6.625 23.0625 6.6875 22.6875C7.25 18.25 10.8125 14.875 15 14.875C19.125 14.875 22.6875 18.25 23.3125 22.6875C23.375 23.0625 23.25 23.4375 23 23.6875C22.75 23.875 22.4375 24.0625 22.125 24.0625ZM15 15.1875C11 15.1875 7.625 18.375 7.0625 22.625C7 22.875 7.125 23.1875 7.3125 23.375C7.5 23.5625 7.6875 23.625 7.9375 23.625H22.125C22.375 23.625 22.5625 23.5 22.75 23.375C22.9375 23.1875 23 22.9375 23 22.625C22.375 18.375 19 15.1875 15 15.1875Z" fill="#F2F2F2"/>
<path d="M15 13.125C16.933 13.125 18.5 11.558 18.5 9.625C18.5 7.692 16.933 6.125 15 6.125C13.067 6.125 11.5 7.692 11.5 9.625C11.5 11.558 13.067 13.125 15 13.125Z" fill="#A64141"/>
<path d="M15 13.3125C12.9375 13.3125 11.3125 11.6875 11.3125 9.625C11.3125 7.5625 12.9375 5.9375 15 5.9375C17.0625 5.9375 18.6875 7.5625 18.6875 9.625C18.6875 11.6875 17.0625 13.3125 15 13.3125ZM15 6.3125C13.1875 6.3125 11.6875 7.8125 11.6875 9.625C11.6875 11.4375 13.1875 12.9375 15 12.9375C16.8125 12.9375 18.3125 11.4375 18.3125 9.625C18.3125 7.8125 16.8125 6.3125 15 6.3125Z" fill="#F2F2F2"/>
</g>
<defs>
<filter id="filter0_i_111_1347" x="0" y="0" width="30" height="34" filterUnits="userSpaceOnUse" color-interpolation-filters="sRGB">
<feFlood flood-opacity="0" result="BackgroundImageFix"/>
<feBlend mode="normal" in="SourceGraphic" in2="BackgroundImageFix" result="shape"/>
<feColorMatrix in="SourceAlpha" type="matrix" values="0 0 0 0 0 0 0 0 0 0 0 0 0 0 0 0 0 0 127 0" result="hardAlpha"/>
<feOffset dy="4"/>
<feGaussianBlur stdDeviation="2"/>
<feComposite in2="hardAlpha" operator="arithmetic" k2="-1" k3="1"/>
<feColorMatrix type="matrix" values="0 0 0 0 0.85098 0 0 0 0 0.639216 0 0 0 0 0.639216 0 0 0 1 0"/>
<feBlend mode="normal" in2="shape" result="effect1_innerShadow_111_1347"/>
</filter>
</defs>
</svg>
