<svg width="30" height="30" viewBox="0 0 30 30" fill="none" xmlns="http://www.w3.org/2000/svg">
<g clip-path="url(#clip0_119_863)">
<path fill-rule="evenodd" clip-rule="evenodd" d="M15.0294 -0.0183105C6.75698 -0.0183105 0.0296021 6.71048 0.0296021 14.9816C0.0296021 23.2527 6.75698 29.9817 15.0294 29.9817C23.2991 29.9817 30.0293 23.2526 30.0293 14.9816C30.0293 6.71054 23.2991 -0.0183105 15.0294 -0.0183105Z" fill="#F2B6D7"/>
<path fill-rule="evenodd" clip-rule="evenodd" d="M13.2998 29.8814C13.8675 29.9469 14.4444 29.9817 15.0294 29.9817C23.2991 29.9817 30.0293 23.2526 30.0293 14.9816C30.0293 14.3966 29.9945 13.8197 29.929 13.252L23.3836 6.70663C23.2761 6.57637 23.1134 6.49329 22.9315 6.49329H16.2373C15.9139 6.49329 15.6513 6.75584 15.6513 7.07922V8.08141L14.2553 6.68536C14.1481 6.56741 13.9934 6.49329 13.8216 6.49329H7.12735C6.80397 6.49329 6.54141 6.75584 6.54141 7.07922V13.7746C6.54141 13.9465 6.61553 14.1012 6.73348 14.2084L8.1279 15.6029H7.12735C6.80397 15.6029 6.54141 15.8652 6.54141 16.1888V22.8841C6.54141 23.0662 6.6245 23.2288 6.75475 23.3363L13.2998 29.8814Z" fill="#F26D91"/>
<path fill-rule="evenodd" clip-rule="evenodd" d="M13.2356 22.2982H7.71329V16.7748H13.2356V22.2982ZM13.8216 15.6029H7.12735C6.80397 15.6029 6.54141 15.8652 6.54141 16.1889V22.8842C6.54141 23.2079 6.80397 23.4701 7.12735 23.4701H13.8216C14.1449 23.4701 14.4075 23.2078 14.4075 22.8842V16.1889C14.4076 15.8652 14.145 15.6029 13.8216 15.6029ZM22.3456 13.1886H16.8232V7.66516H22.3456V13.1886ZM22.9315 6.49329H16.2373C15.9139 6.49329 15.6513 6.75584 15.6513 7.07922V13.7746C15.6513 14.0982 15.9139 14.3608 16.2373 14.3608H22.9315C23.2549 14.3608 23.5174 14.0982 23.5174 13.7746V7.07922C23.5175 6.75584 23.2549 6.49329 22.9315 6.49329ZM13.2356 13.1886H7.71329V7.66516H13.2356V13.1886ZM13.8216 6.49329H7.12735C6.80397 6.49329 6.54141 6.75584 6.54141 7.07922V13.7746C6.54141 14.0982 6.80397 14.3608 7.12735 14.3608H13.8216C14.1449 14.3608 14.4075 14.0982 14.4075 13.7746V7.07922C14.4076 6.75584 14.145 6.49329 13.8216 6.49329ZM22.3456 22.2982H16.8232V16.7748H22.3456V22.2982ZM22.9315 15.6029H16.2373C15.9139 15.6029 15.6513 15.8652 15.6513 16.1889V22.8842C15.6513 23.2079 15.9139 23.4701 16.2373 23.4701H22.9315C23.2549 23.4701 23.5174 23.2078 23.5174 22.8842V16.1889C23.5175 15.8652 23.2549 15.6029 22.9315 15.6029Z" fill="white"/>
</g>
<defs>
<clipPath id="clip0_119_863">
<rect width="30" height="30" fill="white"/>
</clipPath>
</defs>
</svg>
