<svg width="14" height="14" viewBox="0 0 14 14" fill="none" xmlns="http://www.w3.org/2000/svg">
<path d="M7 9.65519C7.93317 9.65519 8.68966 8.8987 8.68966 7.96553C8.68966 7.03236 7.93317 6.27588 7 6.27588C6.06683 6.27588 5.31035 7.03236 5.31035 7.96553C5.31035 8.8987 6.06683 9.65519 7 9.65519Z" fill="white"/>
<path d="M12.069 3.86209H10.486C10.3846 3.86212 10.2858 3.83024 10.2036 3.77097C10.1214 3.7117 10.0599 3.62806 10.0279 3.53189L9.87531 3.07375C9.81116 2.8815 9.68815 2.71431 9.5237 2.59587C9.35925 2.47743 9.1617 2.41374 8.95903 2.41382H5.04048C4.83784 2.41387 4.64035 2.47768 4.47599 2.59621C4.31163 2.71474 4.18872 2.88197 4.12469 3.07423L3.97214 3.53189C3.94011 3.62806 3.87862 3.7117 3.79639 3.77097C3.71416 3.83024 3.61536 3.86212 3.514 3.86209H1.93103C1.67496 3.86209 1.42938 3.96382 1.24831 4.14489C1.06724 4.32596 0.965515 4.57154 0.965515 4.82761V10.6207C0.965515 10.8768 1.06724 11.1224 1.24831 11.3034C1.42938 11.4845 1.67496 11.5862 1.93103 11.5862H12.069C12.325 11.5862 12.5706 11.4845 12.7517 11.3034C12.9328 11.1224 13.0345 10.8768 13.0345 10.6207V4.82761C13.0345 4.57154 12.9328 4.32596 12.7517 4.14489C12.5706 3.96382 12.325 3.86209 12.069 3.86209ZM7 10.6207C5.53627 10.6207 4.34483 9.42927 4.34483 7.96554C4.34483 6.50182 5.53627 5.31037 7 5.31037C8.46372 5.31037 9.65517 6.50182 9.65517 7.96554C9.65517 9.42927 8.46372 10.6207 7 10.6207ZM9.89655 5.79313C9.76851 5.79313 9.64572 5.74227 9.55519 5.65173C9.46465 5.5612 9.41379 5.43841 9.41379 5.31037C9.41379 5.18233 9.46465 5.05954 9.55519 4.96901C9.64572 4.87847 9.76851 4.82761 9.89655 4.82761C10.0246 4.82761 10.1474 4.87847 10.2379 4.96901C10.3284 5.05954 10.3793 5.18233 10.3793 5.31037C10.3793 5.43841 10.3284 5.5612 10.2379 5.65173C10.1474 5.74227 10.0246 5.79313 9.89655 5.79313Z" fill="white"/>
<path d="M2.65517 3.37937H1.68965C1.62563 3.37937 1.56424 3.35393 1.51897 3.30867C1.4737 3.2634 1.44827 3.202 1.44827 3.13799C1.44827 3.07397 1.4737 3.01257 1.51897 2.9673C1.56424 2.92204 1.62563 2.89661 1.68965 2.89661H2.65517C2.71919 2.89661 2.78058 2.92204 2.82585 2.9673C2.87112 3.01257 2.89655 3.07397 2.89655 3.13799C2.89655 3.202 2.87112 3.2634 2.82585 3.30867C2.78058 3.35393 2.71919 3.37937 2.65517 3.37937Z" fill="white"/>
</svg>
