<svg width="30" height="30" viewBox="0 0 30 30" fill="none" xmlns="http://www.w3.org/2000/svg">
<g filter="url(#filter0_i_113_2219)">
<path d="M3.92577 8.71289C4.5703 9.05273 13.5234 13.9336 13.8574 14.1094C14.1914 14.2852 14.5312 14.3672 15.0586 14.3672C15.5859 14.3672 15.9258 14.2852 16.2598 14.1094C16.5937 13.9336 25.5469 9.05273 26.1914 8.71289C26.4316 8.58984 26.8359 8.36719 26.9238 8.11523C27.0762 7.66992 26.9121 7.5 26.2617 7.5H3.85546C3.20507 7.5 3.04101 7.67578 3.19335 8.11523C3.28124 8.37305 3.68554 8.58984 3.92577 8.71289Z" fill="#A64141"/>
<path d="M26.7012 8.97656C26.2207 9.22266 21.9082 12.293 19.0547 14.1387L23.8711 19.5586C23.9883 19.6758 24.041 19.8164 23.9766 19.8867C23.9062 19.9512 23.7539 19.916 23.6309 19.8047L17.8535 14.9297C16.9805 15.4922 16.3652 15.8789 16.2598 15.9375C15.8086 16.166 15.4922 16.1953 15.0586 16.1953C14.625 16.1953 14.3086 16.166 13.8574 15.9375C13.7461 15.8789 13.1367 15.4922 12.2637 14.9297L6.48633 19.8047C6.36914 19.9219 6.21094 19.957 6.14063 19.8867C6.07031 19.8223 6.12305 19.6758 6.24023 19.5586L11.0508 14.1387C8.19727 12.293 3.83789 9.22266 3.35742 8.97656C2.8418 8.71289 2.8125 9.02344 2.8125 9.26367V21.2754C2.8125 21.8203 3.61523 22.5 4.18945 22.5H25.9277C26.502 22.5 27.1875 21.8145 27.1875 21.2754V9.26367C27.1875 9.01758 27.2227 8.71289 26.7012 8.97656Z" fill="#A64141"/>
</g>
<defs>
<filter id="filter0_i_113_2219" x="0" y="0" width="30" height="34" filterUnits="userSpaceOnUse" color-interpolation-filters="sRGB">
<feFlood flood-opacity="0" result="BackgroundImageFix"/>
<feBlend mode="normal" in="SourceGraphic" in2="BackgroundImageFix" result="shape"/>
<feColorMatrix in="SourceAlpha" type="matrix" values="0 0 0 0 0 0 0 0 0 0 0 0 0 0 0 0 0 0 127 0" result="hardAlpha"/>
<feOffset dy="4"/>
<feGaussianBlur stdDeviation="2"/>
<feComposite in2="hardAlpha" operator="arithmetic" k2="-1" k3="1"/>
<feColorMatrix type="matrix" values="0 0 0 0 0.85098 0 0 0 0 0.639216 0 0 0 0 0.639216 0 0 0 1 0"/>
<feBlend mode="normal" in2="shape" result="effect1_innerShadow_113_2219"/>
</filter>
</defs>
</svg>
