<svg width="35" height="28" viewBox="0 0 35 28" fill="none" xmlns="http://www.w3.org/2000/svg">
<g clip-path="url(#clip0_113_1513)">
<path d="M16.82 0H17.44C17.8007 0 18.1466 0.143285 18.4017 0.398335C18.6567 0.653384 18.8 0.999306 18.8 1.36V4.7H15.46V1.36C15.46 0.999306 15.6033 0.653384 15.8583 0.398335C16.1134 0.143285 16.4593 0 16.82 0V0Z" fill="#A64141"/>
<path d="M25.9505 3.04442L26.504 3.32387C26.826 3.48644 27.0702 3.77026 27.1829 4.11289C27.2956 4.45552 27.2676 4.8289 27.105 5.15088L26.1225 7.09689L23.141 5.59147L24.1371 3.61869C24.3043 3.30491 24.5877 3.06909 24.9267 2.96175C25.2657 2.85441 25.6332 2.88409 25.9505 3.04442Z" fill="#A64141"/>
<path d="M8.18454 3.2761L8.75129 3.02472C9.081 2.87847 9.45531 2.86919 9.79187 2.99892C10.1284 3.12865 10.3997 3.38677 10.5459 3.71648L11.4298 5.70925L8.37668 7.06349L7.48061 5.0433C7.34365 4.71518 7.34063 4.34647 7.47221 4.01616C7.60378 3.68584 7.85948 3.42019 8.18454 3.2761Z" fill="#A64141"/>
<path d="M20.71 18.32C19.8786 18.3247 19.0587 18.1265 18.3213 17.7426C17.5839 17.3587 16.9513 16.8006 16.4783 16.1169C16.0054 15.4331 15.7065 14.6443 15.6074 13.8188C15.5084 12.9934 15.6123 12.1562 15.91 11.38C15.0811 11.6443 14.3332 12.1155 13.7369 12.7491C13.1406 13.3828 12.7156 14.1579 12.5021 15.0013C12.2885 15.8448 12.2934 16.7287 12.5163 17.5697C12.7393 18.4108 13.1728 19.1811 13.7761 19.8081C14.3794 20.435 15.1324 20.8979 15.9643 21.153C16.7961 21.4081 17.6792 21.447 18.5302 21.2661C19.3813 21.0851 20.1722 20.6903 20.8283 20.1188C21.4843 19.5474 21.984 18.8182 22.28 18C21.778 18.193 21.2475 18.3011 20.71 18.32Z" fill="#A64141"/>
<path d="M17.32 27.27C11 27.27 5 24 0.529998 18C0.185016 17.536 -0.00128174 16.9732 -0.00128174 16.395C-0.00128174 15.8168 0.185016 15.254 0.529998 14.79C5 8.77 11 5.48 17.32 5.48C23.64 5.48 29.6 8.78 34.11 14.77C34.455 15.234 34.6413 15.7968 34.6413 16.375C34.6413 16.9532 34.455 17.516 34.11 17.98C29.59 24 23.63 27.27 17.32 27.27ZM2.88 16.37C6.88 21.57 11.95 24.43 17.32 24.43C22.69 24.43 27.81 21.57 31.76 16.43C27.76 11.23 22.68 8.37 17.32 8.37C11.96 8.37 6.83 11.18 2.88 16.37Z" fill="#A64141"/>
</g>
<defs>
<clipPath id="clip0_113_1513">
<rect width="34.64" height="27.27" fill="white"/>
</clipPath>
</defs>
</svg>
