<svg width="45" height="45" viewBox="0 0 45 45" fill="none" xmlns="http://www.w3.org/2000/svg">
<path d="M22.4999 3.48938C12.0237 3.48938 3.50049 12.0175 3.50049 22.5C3.50049 32.9828 12.0237 41.5106 22.4999 41.5106C32.9763 41.5106 41.4998 32.9828 41.4998 22.5C41.4995 12.0175 32.976 3.48938 22.4999 3.48938ZM22.4999 39.6356C13.0569 39.6356 5.37441 31.9488 5.37441 22.5C5.37441 13.0516 13.0569 5.36438 22.4999 5.36438C31.9428 5.36438 39.6259 13.0516 39.6259 22.5C39.6256 31.9488 31.9428 39.6356 22.4999 39.6356Z" fill="#A64141"/>
<path d="M28.3562 11.345H24.2348C24.2251 11.345 24.2157 11.3453 24.2067 11.3463C20.0456 11.3594 19.5022 14.2666 19.5 16.8075C19.4944 16.8313 19.4913 16.8556 19.4913 16.8809V18.6647H16.6435C16.4711 18.6647 16.3312 18.8047 16.3312 18.9772V23.3763C16.3312 23.5491 16.4711 23.6888 16.6435 23.6888H19.4913V33.3422C19.4913 33.515 19.6312 33.6547 19.8036 33.6547H23.9596C24.1323 33.6547 24.2719 33.515 24.2719 33.3422V23.6891H28.3558C28.5286 23.6891 28.6682 23.5494 28.6682 23.3766V18.9775C28.6682 18.805 28.5286 18.665 28.3558 18.665H23.9596V16.3003H28.3558C28.5286 16.3003 28.6682 16.1603 28.6682 15.9878V11.6575C28.6685 11.485 28.5286 11.345 28.3562 11.345Z" fill="#A64141"/>
</svg>
