<svg width="45" height="45" viewBox="0 0 45 45" fill="none" xmlns="http://www.w3.org/2000/svg">
<path d="M22.4999 3.48938C12.0237 3.48938 3.50049 12.0175 3.50049 22.5C3.50049 32.9825 12.0237 41.5106 22.4999 41.5106C32.9763 41.5106 41.4998 32.9825 41.4998 22.5C41.4998 12.0175 32.976 3.48938 22.4999 3.48938ZM22.4999 39.6356C13.0569 39.6356 5.37441 31.9484 5.37441 22.5C5.37441 13.0516 13.0569 5.36438 22.4999 5.36438C31.9428 5.36438 39.6259 13.0516 39.6259 22.5C39.6259 31.9484 31.9428 39.6356 22.4999 39.6356Z" fill="#A64141"/>
<path d="M17.6439 20.9566V24.0816H21.948C21.2874 25.8631 19.5931 27.1309 17.607 27.1309C15.046 27.1309 12.97 25.0241 12.97 22.425C12.97 19.8259 15.046 17.7188 17.607 17.7188C18.7692 17.7188 19.8298 18.1541 20.6431 18.8713L20.69 18.8419L22.969 16.5094C21.5732 15.2481 19.7343 14.4809 17.7182 14.4809C13.3542 14.4809 9.81622 18.0713 9.81622 22.5C9.81622 26.9294 13.3542 30.5194 17.7182 30.5194C22.082 30.5194 25.6206 26.9294 25.6206 22.5C25.6206 21.9719 25.5656 21.4569 25.47 20.9566H17.6439Z" fill="#A64141"/>
<path d="M32.2636 21.0353V18.2697H30.2098V21.0353H27.4457V23.0903H30.2098V25.855H32.2636V23.0903H35.0276V21.0353H32.2636Z" fill="#A64141"/>
</svg>
