<svg width="20" height="20" viewBox="0 0 20 20" fill="none" xmlns="http://www.w3.org/2000/svg">
<path d="M10.5952 1.66705C11.0536 1.65871 11.4877 1.82455 11.8119 2.14205C12.1377 2.44955 12.3119 2.87538 12.3119 3.32538C12.3119 4.24205 13.0702 4.98455 14.0127 4.98455C14.3036 4.98455 14.5952 4.90038 14.8544 4.75871C15.6619 4.32455 16.6702 4.60038 17.1286 5.37538L17.6961 6.35038C17.8377 6.60038 17.9202 6.88371 17.9202 7.17538C17.9202 7.76705 17.5961 8.31788 17.0711 8.60871C16.8119 8.75038 16.5952 8.96705 16.4461 9.21788C16.0036 10.0004 16.2794 10.9912 17.0711 11.4429C17.8702 11.9004 18.1452 12.9012 17.6961 13.692L17.1286 14.6345C16.8286 15.1504 16.2702 15.4679 15.6702 15.4679C15.3702 15.4679 15.0702 15.392 14.8211 15.242C14.5536 15.1004 14.2627 15.017 13.9702 15.017C13.5202 15.017 13.0869 15.1929 12.7711 15.5087C12.4452 15.8179 12.2702 16.242 12.2702 16.6837C12.2702 17.592 11.5127 18.3337 10.5702 18.3337H9.42941C8.97858 18.3337 8.55358 18.1504 8.24525 17.842C7.92858 17.5254 7.76275 17.1087 7.76275 16.6754C7.76275 15.7587 7.01191 15.017 6.07108 15.017C5.76191 15.017 5.46191 15.1004 5.20358 15.2595C4.81191 15.4754 4.34525 15.5337 3.91191 15.4254C3.47858 15.3087 3.10358 15.0254 2.87858 14.6504L2.34608 13.7087C2.09525 13.3179 2.02025 12.8504 2.13775 12.4087C2.25358 11.967 2.55441 11.592 2.96191 11.367C3.22108 11.2254 3.43691 11.017 3.58691 10.7587C4.02108 9.97538 3.74525 8.99205 2.96191 8.53371C2.17025 8.08371 1.89525 7.09205 2.34608 6.30871L2.87858 5.37538C3.10358 4.98455 3.47858 4.70038 3.92025 4.58371C4.36275 4.46705 4.82858 4.53288 5.22025 4.75871C5.48691 4.90038 5.77858 4.97538 6.07108 4.97538C6.52108 4.97538 6.95358 4.80038 7.27025 4.49205C7.58691 4.18371 7.76275 3.75871 7.76275 3.32538C7.76275 2.40871 8.52025 1.66705 9.46191 1.66705H10.5952ZM10.9294 7.90121C10.0544 7.54205 9.04525 7.73371 8.37025 8.39205C7.70358 9.04205 7.49525 10.0337 7.86191 10.8845C8.22108 11.742 9.07025 12.3004 10.0202 12.3004H10.0294C10.6544 12.3087 11.2377 12.0679 11.6786 11.6337C12.1202 11.2087 12.3702 10.6254 12.3702 10.017C12.3786 9.09205 11.8036 8.25038 10.9294 7.90121Z" fill="white"/>
</svg>
